<svg xmlns="http://www.w3.org/2000/svg" viewBox="0 0 70.15 71.45"><defs><style>.cls-1{fill:#0b101c;}</style></defs><title>setting_black</title><g id="Layer_2" data-name="Layer 2"><g id="Layer_8" data-name="Layer 8"><path class="cls-1" d="M61.45,40.84l.45-8.17s7.71-4.08,8.16-5.44S63.26,13.62,61,13.61s-8.62,3.89-8.62,3.89l-8.16-3.89s1.36-10.88,0-12.69S27.43.46,25.61.92s0,12.24,0,12.24l-7.26,4.72S12,11.35,9.28,11-.34,22.6,0,26.23s9.46,5.53,9.46,5.53l.81,8.62s-9.16,5.45-9.27,8,6.46,11.54,8.27,12,9.53-5,9.53-5L26,59.05s-2.69,10.36,0,11.54,17.24,1.09,18.6,0,.19-11.24.19-11.24l8.07-4.09s6.26,5,8.07,5S69.16,49,70.09,46.73,61.45,40.84,61.45,40.84ZM37.28,48.35c-6.4,0-12.86-3.09-12.86-11.77s6.41-11.77,12.73-11.77S48,31,48,38A10.72,10.72,0,0,1,37.28,48.35Z"/></g></g></svg>