<svg xmlns="http://www.w3.org/2000/svg" viewBox="0 0 71.93 70.68"><defs><style>.cls-1{fill:#fff;}</style></defs><title>setting_white</title><g id="Layer_2" data-name="Layer 2"><g id="Layer_8" data-name="Layer 8"><path class="cls-1" d="M57.59,51.92l4.14-7.05s8.73-.09,9.76-1.09.19-15.21-1.82-16.26-9.44-.5-9.44-.5l-5.48-7.2s6.2-9,5.83-11.28S45.87.44,44.05,0,38.43,10.9,38.43,10.9l-8.61.86S27.17,3,24.93,1.44,11.05,7.38,9.7,10.76,15.56,20,15.56,20l-3.23,8S1.69,28.68.44,30.88.88,44.09,2.28,45.33,13,45.26,13,45.26l4.72,6.61s-7.14,8-5.26,10.27S27.31,71,29,70.67s5.32-9.91,5.32-9.91l9.06.07s3.27,7.3,4.88,8.13,12.41-6.25,14.28-7.84S57.59,51.92,57.59,51.92Zm-24.93-4.4c-5.69-2.94-10-8.65-6-16.36s11.1-7.52,16.72-4.62S50.18,37,47,43.26A10.72,10.72,0,0,1,32.66,47.52Z"/></g></g></svg>