<svg xmlns="http://www.w3.org/2000/svg" viewBox="0 0 362.9 323.34"><defs><style>.cls-1{fill:#ff7f00;}.cls-2{font-size:52px;fill:#fff;font-family:PatrickHandSC-Regular, Patrick Hand SC;}</style></defs><title>settings_leaf</title><g id="Layer_2" data-name="Layer 2"><g id="Layer_8" data-name="Layer 8"><path class="cls-1" d="M360.39,15.16s5.64,100.58,0,101.52-30.08,4.7-30.08,4.7,21.62,5.64,25.38,12.22-17.84,76.08-23.49,80.78-33.86-12.27-33.86-12.27,18.81,28.31,18.81,34.89-55.46,44.18-63,44.18-40.42-18.8-40.42-18.8,16.92,21.62,16,26.33S132,311.27,126.33,311.27s-32.91-31-32.91-31,6.59,28.21,5.65,31S6.94,328.19,3.18,321.61s-4.7-90.25,0-92.13,25.38-.94,25.38-.94S8.82,214.44,7.88,208.8s11.28-60.16,15-63.92,26.32.94,26.32.94-16-12.28-16-19.77S74.62,59.34,79.32,59.34s29.15,14.1,29.15,14.1S96.24,47.12,96.24,44.3s37.61-20.68,65.81-29.14,47-11.28,51.7-9.4,17.86,26.32,17.86,26.32-.94-31,4.7-32S349.11,3.88,360.39,15.16Z"/><text class="cls-2" transform="translate(122.03 109.97)">settings</text></g></g></svg>