<svg xmlns="http://www.w3.org/2000/svg" xmlns:xlink="http://www.w3.org/1999/xlink" viewBox="0 0 156.6 78.27"><defs><style>.cls-1{fill:#955663;}.cls-2{clip-path:url(#clip-path);}.cls-3{fill:#683542;}.cls-4{fill:#ffd085;}.cls-5,.cls-6,.cls-7{fill:none;stroke:#955663;stroke-miterlimit:10;}.cls-5{stroke-width:2.21px;}.cls-6{stroke-width:2.31px;}.cls-7{stroke-width:2.33px;}</style><clipPath id="clip-path"><path id="_Clipping_Path_" data-name="&lt;Clipping Path&gt;" class="cls-1" d="M139,1.5s-8.51,9-9.29,9.3L100.2,21.47l4.37-6.68L94,7.89,80.47,28.6,4.21,56.17,11.35,76,50.93,61.64l27.78,16L85,66.66,66.48,56l64.83-23.44,18.22,2.65,1.81-12.49-12.6-1.83,9.85-9.85Z"/></clipPath></defs><title>stick</title><g id="Layer_2" data-name="Layer 2"><g id="Layer_8" data-name="Layer 8"><path id="_Clipping_Path_2" data-name="&lt;Clipping Path&gt;" class="cls-1" d="M139,1.5s-8.51,9-9.29,9.3L100.2,21.47l4.37-6.68L94,7.89,80.47,28.6,4.21,56.17,11.35,76,50.93,61.64l27.78,16L85,66.66,66.48,56l64.83-23.44,18.22,2.65,1.81-12.49-12.6-1.83,9.85-9.85Z"/><g class="cls-2"><path class="cls-3" d="M12.89,68.15S129.22,26.31,129.12,26.82c-.68,3.32,2.19,5.76,2.19,5.76s18.21,2.49,17.73,2.58S8.61,77.52,8.61,77.52Z"/></g><circle class="cls-1" cx="99.19" cy="11.43" r="6.32"/><ellipse class="cls-1" cx="143.54" cy="6.54" rx="6.32" ry="6.76" transform="translate(37.53 103.55) rotate(-45.07)"/><path class="cls-1" d="M50.93,61.64A3.88,3.88,0,0,1,48.7,58a6.74,6.74,0,0,1,6.3-6.5c3.71-.36,2.68-.17,11.48,4.57a92.4,92.4,0,0,1,8.35,4.79L62.12,68.07Z"/><ellipse class="cls-4" cx="7.85" cy="66.04" rx="7.43" ry="10.51" transform="translate(-22.03 6.62) rotate(-19.92)"/><ellipse class="cls-5" cx="7.68" cy="66.1" rx="4.78" ry="6.76" transform="translate(-22.06 6.57) rotate(-19.92)"/><ellipse class="cls-1" cx="7.68" cy="66.1" rx="1.94" ry="2.74" transform="translate(-22.06 6.57) rotate(-19.92)"/><ellipse class="cls-4" cx="81.89" cy="72.06" rx="6.38" ry="5.64" transform="translate(-21.36 107.26) rotate(-60.18)"/><ellipse class="cls-6" cx="81.92" cy="72.04" rx="3.14" ry="2.8" transform="translate(-21.32 107.28) rotate(-60.18)"/><ellipse class="cls-4" cx="150.51" cy="28.99" rx="6.31" ry="6.08" transform="translate(99.73 173.61) rotate(-81.56)"/><ellipse class="cls-7" cx="150.51" cy="28.99" rx="3.28" ry="3.16" transform="translate(99.73 173.61) rotate(-81.56)"/><path class="cls-3" d="M100.2,21.47,93.77,23.8,103.89,7.22s3.22,3.58.62,7.6S100.2,21.47,100.2,21.47Z"/><path class="cls-3" d="M138.74,20.91s-3.48-.93-3.21-1.34C136,18.86,149.78,5,149.78,5a6.29,6.29,0,0,1-1.45,6.34Z"/></g></g></svg>