<svg xmlns="http://www.w3.org/2000/svg" xmlns:xlink="http://www.w3.org/1999/xlink" viewBox="0 0 239.56 356.07"><defs><style>.cls-1{fill:#ffaf4c;}.cls-2{fill:#55a1af;}.cls-3{fill:#de6d80;}.cls-4{fill:#e9c0c8;}.cls-5{fill:#0c101c;}.cls-6{fill:#fff6f8;}.cls-7{fill:#ffeed9;}.cls-8{clip-path:url(#clip-path);}.cls-9{fill:#d68c3c;}.cls-10{fill:#ffc064;}.cls-11{fill:#ffd994;}.cls-12{fill:#001a1e;}.cls-13{clip-path:url(#clip-path-2);}.cls-14{fill:none;stroke:#0c101c;stroke-linecap:round;stroke-linejoin:round;stroke-width:22.37px;}.cls-15{fill:#ff8200;opacity:0;}</style><clipPath id="clip-path"><path id="_Clipping_Path_" data-name="&lt;Clipping Path&gt;" class="cls-1" d="M107.72,202.31S96.31,201,82.66,210.05,81,182.57,105.77,191c13.57,11.52,40.49-3,40.49-3s9.67,10.36,7.27,14.41-9.87-4.57-16.3-2.61S107.72,202.31,107.72,202.31Z"/></clipPath><clipPath id="clip-path-2"><polygon id="_Clipping_Path_2" data-name="&lt;Clipping Path&gt;" class="cls-2" points="82.31 210.28 79.44 208.43 77 207.76 76.33 209.37 77.64 211.23 79.99 212.01 82.31 210.28"/></clipPath></defs><title>eat1_1</title><g id="Layer_2" data-name="Layer 2"><g id="grab1"><g id="Ears"><ellipse class="cls-3" cx="208.79" cy="154.61" rx="30.77" ry="31.82"/><ellipse class="cls-4" cx="208.79" cy="154.61" rx="19.16" ry="19.82"/><ellipse class="cls-3" cx="30.77" cy="154.61" rx="30.77" ry="31.82"/><ellipse class="cls-4" cx="30.77" cy="154.61" rx="19.16" ry="19.82"/></g><path class="cls-5" d="M198.18,193.86a70.65,70.65,0,0,0,10.61-37.08c0-43.25-39.85-78.3-89-78.3s-89,35.05-89,78.3a70.65,70.65,0,0,0,10.61,37.08A95.74,95.74,0,0,0,17,257.57c0,54.4,46,98.5,102.79,98.5s102.79-44.1,102.79-98.5A95.74,95.74,0,0,0,198.18,193.86Z"/><path id="Face" class="cls-3" d="M195.92,155.85c0-27.76-21.22-50.26-47.39-50.26A45.41,45.41,0,0,0,119.78,116,45.41,45.41,0,0,0,91,105.59c-26.17,0-47.39,22.5-47.39,50.26,0,0-5.71,56.77,76.14,56.77S195.92,155.85,195.92,155.85Z"/><path class="cls-4" d="M119.78,145.47c-26.39,0-55.16,17.25-68.68,38.9,8.84,14.15,27.88,28.25,68.68,28.25s59.83-14.1,68.68-28.25C174.94,162.72,146.17,145.47,119.78,145.47Z"/><g id="Eyes"><ellipse class="cls-5" cx="147.1" cy="130.81" rx="8.21" ry="8.49"/><ellipse class="cls-6" cx="146.1" cy="133.49" rx="3.49" ry="3.61"/><ellipse class="cls-5" cx="92.45" cy="130.91" rx="8.21" ry="8.49"/><ellipse class="cls-6" cx="93.45" cy="133.54" rx="3.43" ry="3.55"/></g><ellipse id="Mouth" class="cls-5" cx="120" cy="176.76" rx="30.59" ry="22.15"/><path class="cls-7" d="M106.47,194.81s-2.14-33.19,10.59-33.19,17,36.74,17,36.74l-15,17.53Z"/><g id="banan_slip"><path id="_Clipping_Path_3" data-name="&lt;Clipping Path&gt;" class="cls-1" d="M107.72,202.31S96.31,201,82.66,210.05,81,182.57,105.77,191c13.57,11.52,40.49-3,40.49-3s9.67,10.36,7.27,14.41-9.87-4.57-16.3-2.61S107.72,202.31,107.72,202.31Z"/><g class="cls-8"><path class="cls-9" d="M71.81,216.38s10.61-12.4,17.35-15,18.27-7,21.3-4.28-.18,9.59-.18,9.59L69.73,218.61Z"/><path class="cls-9" d="M135.07,194.71c4.84-3.47,23.83,12.19,23.83,12.19l-22.87.16S130.23,198.18,135.07,194.71Z"/></g><path class="cls-10" d="M136,207.06c5.31-19,25.36-19.11,26.67-26s-34.06-3.42-42.31,6.19c-7.48,8.71-9.43,52.31-6.84,55.73C115.66,245.73,127,239.39,136,207.06Z"/><path class="cls-11" d="M111.6,244.27c-2.63-.3-3.28-49.17-16.15-53.2s-25.76-.22-25-4.41,38.41-14.89,47.62,3S116.54,244.81,111.6,244.27Z"/><polygon class="cls-12" points="118.11 242.22 114.67 249.36 111.92 250.01 114.46 241.63 118.11 242.22"/><polygon id="_Clipping_Path_4" data-name="&lt;Clipping Path&gt;" class="cls-2" points="82.31 210.28 79.44 208.43 77 207.76 76.33 209.37 77.64 211.23 79.99 212.01 82.31 210.28"/><g class="cls-13"><polygon class="cls-12" points="77.43 211.56 79.44 208.43 85.24 209.83 79.75 212.92 77.43 211.56"/></g><polygon class="cls-2" points="114.46 241.63 111.92 250.01 109.7 248.63 110.63 241.83 114.46 241.63"/></g><g id="Hands"><path class="cls-14" d="M90.77,256.66a111,111,0,0,1,6-51.63"/><path class="cls-14" d="M148.79,256.66a111,111,0,0,0-6-51.63"/></g><rect class="cls-15" width="239.56" height="356.07"/></g></g></svg>