<svg xmlns="http://www.w3.org/2000/svg" viewBox="0 0 239.56 356.07"><defs><style>.cls-1{fill:#de6d80;}.cls-2{fill:#e9c0c8;}.cls-3{fill:#0c101c;}.cls-4,.cls-5{fill:none;stroke:#0c101c;stroke-linecap:round;stroke-linejoin:round;}.cls-4{stroke-width:4.13px;}.cls-5{stroke-width:22.37px;}.cls-6{fill:#ff8200;opacity:0;}</style></defs><title>eat2</title><g id="Layer_2" data-name="Layer 2"><g id="grab2"><g id="Ears"><ellipse class="cls-1" cx="208.79" cy="168.62" rx="30.77" ry="31.82"/><ellipse class="cls-2" cx="208.79" cy="168.62" rx="19.16" ry="19.82"/><ellipse class="cls-1" cx="30.77" cy="168.62" rx="30.77" ry="31.82"/><ellipse class="cls-2" cx="30.77" cy="168.62" rx="19.16" ry="19.82"/></g><path class="cls-3" d="M17,264.38c0,50.64,46,91.69,102.79,91.69S222.57,315,222.57,264.38a85.79,85.79,0,0,0-24.39-59.29c-34.23.13-118.4,1.22-157.4.75C27.45,218.87,17,241.77,17,264.38Z"/><ellipse class="cls-3" cx="119.39" cy="170.4" rx="89.4" ry="74.23"/><path id="Face" class="cls-1" d="M195.92,169.86c0-27.76-21.22-50.26-47.39-50.26A45.45,45.45,0,0,0,119.78,130,45.45,45.45,0,0,0,91,119.6c-26.17,0-47.39,22.5-47.39,50.26,0,0-5.71,56.77,76.14,56.77S195.92,169.86,195.92,169.86Z"/><path class="cls-2" d="M119.78,159.48c-26.39,0-55.16,17.25-68.68,38.9,8.84,14.15,27.88,28.25,68.68,28.25s59.83-14.1,68.68-28.25C174.94,176.73,146.17,159.48,119.78,159.48Z"/><path class="cls-4" d="M99.2,177.49a13.24,13.24,0,0,1,0,18.29,12.21,12.21,0,0,1-17.68,0"/><path class="cls-4" d="M157.27,195.78a12.22,12.22,0,0,1-17.69,0,13.26,13.26,0,0,1,0-18.29"/><path class="cls-4" d="M137.8,193.84a30.34,30.34,0,0,1-36.81,0"/><path class="cls-4" d="M84.07,153.57a8.12,8.12,0,1,1,16.24,0"/><path class="cls-4" d="M138.47,153.63a8.12,8.12,0,1,1,16.24,0"/><g id="Hands"><path class="cls-5" d="M89,272.67A105,105,0,0,1,95.43,221"/><path class="cls-5" d="M150.55,272.67A105,105,0,0,0,144.13,221"/></g><rect class="cls-6" width="239.56" height="356.07"/></g></g></svg>