<svg xmlns="http://www.w3.org/2000/svg" viewBox="0 0 239.56 356.07"><defs><style>.cls-1{fill:#de6d80;}.cls-2{fill:#e9c0c8;}.cls-3{fill:#0c101c;}.cls-4,.cls-5{fill:none;stroke:#0c101c;stroke-linecap:round;stroke-linejoin:round;}.cls-4{stroke-width:4.13px;}.cls-5{stroke-width:22.37px;}.cls-6{fill:#ff8200;opacity:0;}</style></defs><title>eat3</title><g id="Layer_2" data-name="Layer 2"><g id="grab3"><g id="Ears"><ellipse class="cls-1" cx="208.79" cy="154.61" rx="30.77" ry="31.82"/><ellipse class="cls-2" cx="208.79" cy="154.61" rx="19.16" ry="19.82"/><ellipse class="cls-1" cx="30.77" cy="154.61" rx="30.77" ry="31.82"/><ellipse class="cls-2" cx="30.77" cy="154.61" rx="19.16" ry="19.82"/></g><path class="cls-3" d="M198.18,193.86a70.65,70.65,0,0,0,10.61-37.08c0-43.25-39.85-78.3-89-78.3s-89,35.05-89,78.3a70.65,70.65,0,0,0,10.61,37.08A95.74,95.74,0,0,0,17,257.57c0,54.4,46,98.5,102.79,98.5s102.79-44.1,102.79-98.5A95.74,95.74,0,0,0,198.18,193.86Z"/><path id="Face" class="cls-1" d="M195.92,155.85c0-27.76-21.22-50.26-47.39-50.26A45.41,45.41,0,0,0,119.78,116,45.41,45.41,0,0,0,91,105.59c-26.17,0-47.39,22.5-47.39,50.26,0,0-5.71,56.77,76.14,56.77S195.92,155.85,195.92,155.85Z"/><path class="cls-2" d="M119.78,145.47c-26.39,0-55.16,17.25-68.68,38.9,8.84,14.15,27.88,28.25,68.68,28.25s59.83-14.1,68.68-28.25C174.94,162.72,146.17,145.47,119.78,145.47Z"/><path class="cls-4" d="M99.2,163.48a13.24,13.24,0,0,1,0,18.29,12.21,12.21,0,0,1-17.68,0"/><path class="cls-4" d="M157.27,181.77a12.22,12.22,0,0,1-17.69,0,13.26,13.26,0,0,1,0-18.29"/><path class="cls-4" d="M137.8,179.84a30.38,30.38,0,0,1-36.81,0"/><path class="cls-4" d="M84.07,139.57a8.12,8.12,0,1,1,16.24,0"/><path class="cls-4" d="M138.47,139.62a8.12,8.12,0,1,1,16.24,0"/><g id="Hands"><path class="cls-5" d="M89,258.67A105,105,0,0,1,95.43,207"/><path class="cls-5" d="M150.55,258.67A105,105,0,0,0,144.13,207"/></g><rect class="cls-6" width="239.56" height="356.07"/></g></g></svg>