<svg xmlns="http://www.w3.org/2000/svg" viewBox="0 0 239.56 356.07"><defs><style>.cls-1{fill:#de6d80;}.cls-2{fill:#e9c0c8;}.cls-3{fill:#0c101c;}.cls-4,.cls-6{fill:none;stroke:#0c101c;stroke-linecap:round;stroke-linejoin:round;}.cls-4{stroke-width:4.13px;}.cls-5{fill:#8ed6d9;}.cls-6{stroke-width:22.37px;}.cls-7{fill:#ff8200;opacity:0;}</style></defs><title>sad1</title><g id="Layer_2" data-name="Layer 2"><g id="sad2"><g id="Ears"><ellipse class="cls-1" cx="208.79" cy="168.62" rx="30.77" ry="31.82"/><ellipse class="cls-2" cx="208.79" cy="168.62" rx="19.16" ry="19.82"/><ellipse class="cls-1" cx="30.77" cy="168.62" rx="30.77" ry="31.82"/><ellipse class="cls-2" cx="30.77" cy="168.62" rx="19.16" ry="19.82"/></g><path class="cls-3" d="M17,264.38c0,50.64,46,91.69,102.79,91.69S222.57,315,222.57,264.38a85.79,85.79,0,0,0-24.39-59.29c-34.23.13-118.4,1.22-157.4.75C27.45,218.87,17,241.77,17,264.38Z"/><ellipse class="cls-3" cx="119.39" cy="170.4" rx="89.4" ry="74.23"/><path id="Face" class="cls-1" d="M195.92,169.86c0-27.76-21.22-50.26-47.39-50.26A45.45,45.45,0,0,0,119.78,130,45.45,45.45,0,0,0,91,119.6c-26.17,0-47.39,22.5-47.39,50.26,0,0-5.71,56.77,76.14,56.77S195.92,169.86,195.92,169.86Z"/><path class="cls-2" d="M119.78,159.48c-26.39,0-55.16,17.25-68.68,38.9,8.84,14.15,27.88,28.25,68.68,28.25s59.83-14.1,68.68-28.25C174.94,176.73,146.17,159.48,119.78,159.48Z"/><path class="cls-4" d="M107.41,185.15s2-7.26,12.37-7.26,12.37,7.26,12.37,7.26"/><path id="_Path_" data-name="&lt;Path&gt;" class="cls-5" d="M77.48,157.52s-3.86.32-10.74,6.26S60,181.15,57,185.15s-8.75,7.9-8.75,7.9a40.67,40.67,0,0,0,6,9.88c4.08,5,6.44,6.68,6.44,6.68s3.17-1,8.17-7.77,9.78-19.33,16-26,15.36-15.5,17.46-23.87C101.28,148.8,77.48,157.52,77.48,157.52Z"/><path id="_Path_2" data-name="&lt;Path&gt;" class="cls-5" d="M162,157.52s3.85.32,10.73,6.26,6.77,17.37,9.77,21.37,8.75,7.9,8.75,7.9a40.81,40.81,0,0,1-6,9.88c-4.09,5-6.45,6.68-6.45,6.68s-3.17-1-8.17-7.77-9.78-19.33-16-26S139.51,161,137.41,152.66C138.37,149.5,162,157.52,162,157.52Z"/><line class="cls-4" x1="139.42" y1="152.14" x2="162.08" y2="157.52"/><line class="cls-4" x1="100.14" y1="152.14" x2="77.48" y2="157.52"/><g id="Hands"><path class="cls-6" d="M78.59,229.63a104.39,104.39,0,0,1,8.59-59.12"/><path class="cls-6" d="M161,229.63a104.39,104.39,0,0,0-8.6-59.12"/></g><rect class="cls-7" width="239.56" height="356.07"/></g></g></svg>