<svg xmlns="http://www.w3.org/2000/svg" viewBox="0 0 239.56 356.07"><defs><style>.cls-1{fill:#de6d80;}.cls-2{fill:#e9c0c8;}.cls-3{fill:#0c101c;}.cls-4,.cls-6{fill:none;stroke:#0c101c;stroke-linecap:round;stroke-linejoin:round;}.cls-4{stroke-width:4.13px;}.cls-5{fill:#8ed6d9;}.cls-6{stroke-width:22.37px;}.cls-7{fill:#ff8200;opacity:0;}</style></defs><title>sad2</title><g id="Layer_2" data-name="Layer 2"><g id="sad1"><g id="Ears"><ellipse class="cls-1" cx="208.79" cy="154.61" rx="30.77" ry="31.82"/><ellipse class="cls-2" cx="208.79" cy="154.61" rx="19.16" ry="19.82"/><ellipse class="cls-1" cx="30.77" cy="154.61" rx="30.77" ry="31.82"/><ellipse class="cls-2" cx="30.77" cy="154.61" rx="19.16" ry="19.82"/></g><path class="cls-3" d="M198.18,193.86a70.65,70.65,0,0,0,10.61-37.08c0-43.25-39.85-78.3-89-78.3s-89,35.05-89,78.3a70.65,70.65,0,0,0,10.61,37.08A95.74,95.74,0,0,0,17,257.57c0,54.4,46,98.5,102.79,98.5s102.79-44.1,102.79-98.5A95.74,95.74,0,0,0,198.18,193.86Z"/><path id="Face" class="cls-1" d="M195.92,155.85c0-27.76-21.22-50.26-47.39-50.26A45.41,45.41,0,0,0,119.78,116,45.41,45.41,0,0,0,91,105.59c-26.17,0-47.39,22.5-47.39,50.26,0,0-5.71,56.77,76.14,56.77S195.92,155.85,195.92,155.85Z"/><path class="cls-2" d="M119.78,145.47c-26.39,0-55.16,17.25-68.68,38.9,8.84,14.15,27.88,28.25,68.68,28.25s59.83-14.1,68.68-28.25C174.94,162.72,146.17,145.47,119.78,145.47Z"/><path class="cls-4" d="M107.41,171.14s2-7.26,12.37-7.26,12.37,7.26,12.37,7.26"/><path id="_Path_" data-name="&lt;Path&gt;" class="cls-5" d="M164.26,143.51s3.66,7,7.5,11.1,10.17,6.16,14.22,11.58a26.28,26.28,0,0,1,5.26,12.86,40.87,40.87,0,0,1-6,9.87,49.48,49.48,0,0,1-8.12,7.94s-1.62-14.9-7.2-20.52-8.24-7.42-14.52-12.08c-10.82-8-18.36-23.26-18.15-25.75S164.26,143.51,164.26,143.51Z"/><path id="_Path_2" data-name="&lt;Path&gt;" class="cls-5" d="M75.2,143.51s-3.66,7-7.49,11.1-10.18,6.16-14.23,11.58a26.28,26.28,0,0,0-5.26,12.86,40.72,40.72,0,0,0,6,9.87,49.22,49.22,0,0,0,8.11,7.94s1.62-14.9,7.21-20.52,8.23-7.42,14.51-12.08c10.82-8,18.36-23.26,18.15-25.75S75.2,143.51,75.2,143.51Z"/><line class="cls-4" x1="139.42" y1="138.13" x2="162.08" y2="143.51"/><line class="cls-4" x1="100.14" y1="138.13" x2="77.48" y2="143.51"/><g id="Hands"><path class="cls-6" d="M78.59,248.85A214.23,214.23,0,0,1,87.18,163"/><path class="cls-6" d="M161,248.85a214.23,214.23,0,0,0-8.6-85.85"/></g><rect class="cls-7" width="239.56" height="356.07"/></g></g></svg>