<svg xmlns="http://www.w3.org/2000/svg" viewBox="0 0 88.65 99.55"><defs><style>.cls-1{fill:#ffd994;}.cls-2{fill:#ff8200;opacity:0.5;}.cls-3{fill:#55a1af;}.cls-4{fill:#001a1e;}</style></defs><title>banana</title><g id="Layer_2" data-name="Layer 2"><g id="Layer_8" data-name="Layer 8"><g id="banana"><g id="Banana-2" data-name="Banana"><path class="cls-1" d="M57.22,13.22a48.1,48.1,0,0,1,.55,21.19A48.55,48.55,0,0,1,20,72.42a48.87,48.87,0,0,1-15,.7A4.2,4.2,0,0,0,1.3,79.84,48.26,48.26,0,0,0,43.36,99.45C66.6,98,86,79.36,88.39,56.19A48.39,48.39,0,0,0,63.23,8.54,4.16,4.16,0,0,0,57.22,13.22Z"/><path class="cls-2" d="M57.22,13.22a48.1,48.1,0,0,1,.55,21.19A48.55,48.55,0,0,1,20,72.42a48.87,48.87,0,0,1-15,.7A4.1,4.1,0,0,0,.53,76.77a48.27,48.27,0,0,0,22.54,4c23.23-1.46,42.68-20.1,45-43.26A48.23,48.23,0,0,0,61.66,8.09,4.14,4.14,0,0,0,57.22,13.22Z"/><polygon class="cls-3" points="57.88 15.95 65.38 15.95 68.96 12.19 62.24 0 57.01 0 54.51 2.46 57.88 15.95"/><polygon class="cls-4" points="57.88 15.95 65.38 15.95 60.16 2.41 62.24 0 57.01 0 54.51 2.46 57.88 15.95"/><polygon class="cls-3" points="2.22 81.06 6.24 78.87 5.73 73.19 2 72.91 0 74.36 0 78.53 2.22 81.06"/><polygon class="cls-4" points="2.38 76.56 6.24 78.87 5.73 73.19 2 72.91 0 74.36 0 78.53 2.38 76.56"/></g></g></g></g></svg>