<svg xmlns="http://www.w3.org/2000/svg" xmlns:xlink="http://www.w3.org/1999/xlink" viewBox="0 0 98.15 72.84"><defs><style>.cls-1{fill:#ffaf4c;}.cls-2{fill:#55a1af;}.cls-3{clip-path:url(#clip-path);}.cls-4{fill:#d68c3c;}.cls-5{fill:#ffc064;}.cls-6{fill:#ffd994;}.cls-7{fill:#001a1e;}.cls-8{clip-path:url(#clip-path-2);}</style><clipPath id="clip-path"><path id="_Clipping_Path_" data-name="&lt;Clipping Path&gt;" class="cls-1" d="M57.93,47.71s11,3.3,26-3.35-3,27.36-26,14.85C46.51,45.55,17.5,55.32,17.5,55.32S9.74,43.47,12.8,39.88s8.94,6.18,15.61,5.35S57.93,47.71,57.93,47.71Z"/></clipPath><clipPath id="clip-path-2"><polygon id="_Clipping_Path_2" data-name="&lt;Clipping Path&gt;" class="cls-2" points="84.33 44.19 86.83 46.51 89.13 47.58 90.06 46.1 89.09 44.05 86.9 42.88 84.33 44.19"/></clipPath></defs><title>banan_splash</title><g id="Layer_2" data-name="Layer 2"><g id="Layer_8" data-name="Layer 8"><g id="banan_slip"><path id="_Clipping_Path_3" data-name="&lt;Clipping Path&gt;" class="cls-1" d="M57.93,47.71s11,3.3,26-3.35-3,27.36-26,14.85C46.51,45.55,17.5,55.32,17.5,55.32S9.74,43.47,12.8,39.88s8.94,6.18,15.61,5.35S57.93,47.71,57.93,47.71Z"/><g class="cls-3"><path class="cls-4" d="M95.71,40S83.15,50.38,76.06,51.8s-19.19,3.75-21.72.58S56.15,43,56.15,43l42-4.83Z"/><path class="cls-4" d="M29.69,50.55C24.33,53.14,8.28,34.47,8.28,34.47l22.56,3.74S35,48,29.69,50.55Z"/></g><path class="cls-5" d="M30.84,38.21C22.38,56,2.6,52.72.12,59.33s33,9.18,42.76,1.11c8.85-7.31,18.2-49.94,16.23-53.76C57.5,3.58,45.25,7.9,30.84,38.21Z"/><path class="cls-6" d="M61.25,5.71c2.54.74-5.14,49,6.86,55.17S93.45,65.49,92,69.48,51.57,77.61,45.54,58.39,56.48,4.33,61.25,5.71Z"/><polygon class="cls-7" points="54.49 6.62 59.09 0.17 61.92 0 57.99 7.82 54.49 6.62"/><polygon id="_Clipping_Path_4" data-name="&lt;Clipping Path&gt;" class="cls-2" points="84.33 44.19 86.83 46.51 89.13 47.58 90.06 46.1 89.09 44.05 86.9 42.88 84.33 44.19"/><g class="cls-8"><polygon class="cls-7" points="89.35 43.76 86.83 46.51 81.36 44.13 87.3 42.03 89.35 43.76"/></g><polygon class="cls-2" points="57.99 7.82 61.92 0 63.87 1.73 61.79 8.28 57.99 7.82"/></g></g></g></svg>