<svg xmlns="http://www.w3.org/2000/svg" xmlns:xlink="http://www.w3.org/1999/xlink" viewBox="0 0 552.26 460.78"><defs><style>.cls-1{fill:#ffaf4c;}.cls-2{fill:#55a1af;}.cls-3{fill:#0c5472;}.cls-4{font-size:150px;fill:#fff;font-family:PatrickHandSC-Regular, Patrick Hand SC;}.cls-5{clip-path:url(#clip-path);}.cls-6{fill:#d68c3c;}.cls-7{fill:#ffc064;}.cls-8{fill:#ffd994;}.cls-9{fill:#001a1e;}.cls-10{clip-path:url(#clip-path-2);}</style><clipPath id="clip-path"><path id="_Clipping_Path_" data-name="&lt;Clipping Path&gt;" class="cls-1" d="M433.08,79.82s18.42,5.5,43.52-5.62-5,45.78-43.52,24.85c-19.1-22.85-67.62-6.51-67.62-6.51s-13-19.83-7.87-25.82,15,10.33,26.12,8.94S433.08,79.82,433.08,79.82Z"/></clipPath><clipPath id="clip-path-2"><polygon id="_Clipping_Path_2" data-name="&lt;Clipping Path&gt;" class="cls-2" points="477.25 73.93 481.44 77.8 485.28 79.59 486.84 77.13 485.21 73.69 481.56 71.73 477.25 73.93"/></clipPath></defs><title>bananayum</title><g id="Layer_2" data-name="Layer 2"><g id="Layer_8" data-name="Layer 8"><path id="_Path_" data-name="&lt;Path&gt;" class="cls-3" d="M226.58,37.49c70.08-1.77,68.62,22.51,125.28,41s117.69-8,133.78,50.68-19.55,56.25-27.59,104.46,51.06,75.94,5.93,132-130.68,10.68-191.34,17.8-79.81,40.82-124.3,17.09S119,352.91,97.81,330.09.85,299,0,227.75,83.14,136,122.26,119.85,156.49,39.26,226.58,37.49Z"/><path class="cls-3" d="M492.84,251.46c-2.16-16.31,14.16-38.72,34.92-34.93s37.08,40.87,0,48.28S492.84,251.46,492.84,251.46Z"/><path class="cls-3" d="M511.45,307.83c0-16,29.38-34.12,38.42-11.87s-9.81,33.74-19.21,34.12S511.48,323.79,511.45,307.83Z"/><path class="cls-3" d="M252.35,411.62c17.87-16.91,58.64-14.05,68.23,6s-13.87,40-36.12,43S234.48,428.53,252.35,411.62Z"/><text class="cls-4" transform="translate(58.56 270.65) rotate(-10)">banana<tspan x="96.75" y="100">yum</tspan></text><g id="banan_slip"><path id="_Clipping_Path_3" data-name="&lt;Clipping Path&gt;" class="cls-1" d="M433.08,79.82s18.42,5.5,43.52-5.62-5,45.78-43.52,24.85c-19.1-22.85-67.62-6.51-67.62-6.51s-13-19.83-7.87-25.82,15,10.33,26.12,8.94S433.08,79.82,433.08,79.82Z"/><g class="cls-5"><path class="cls-6" d="M496.3,66.86s-21,17.42-32.88,19.79-32.11,6.27-36.34,1,3-15.75,3-15.75l70.25-8.09Z"/><path class="cls-6" d="M385.84,84.55c-9,4.35-35.8-26.88-35.8-26.88l37.73,6.25S394.81,80.21,385.84,84.55Z"/></g><path class="cls-7" d="M387.77,63.92c-14.15,29.76-47.24,24.28-51.38,35.32s55.17,15.36,71.52,1.86c14.81-12.23,30.45-83.53,27.15-89.92C432.37,6,411.88,13.21,387.77,63.92Z"/><path class="cls-8" d="M438.65,9.56c4.25,1.23-8.61,82,11.46,92.28s42.39,7.71,39.88,14.38-67.55,13.61-77.63-18.54S430.67,7.25,438.65,9.56Z"/><polygon class="cls-9" points="427.33 11.08 435.04 0.29 439.76 0 433.19 13.09 427.33 11.08"/><polygon id="_Clipping_Path_4" data-name="&lt;Clipping Path&gt;" class="cls-2" points="477.25 73.93 481.44 77.8 485.28 79.59 486.84 77.13 485.21 73.69 481.56 71.73 477.25 73.93"/><g class="cls-10"><polygon class="cls-9" points="485.65 73.21 481.44 77.8 472.29 73.83 482.22 70.31 485.65 73.21"/></g><polygon class="cls-2" points="433.19 13.09 439.76 0 443.03 2.9 439.55 13.86 433.19 13.09"/></g></g></g></svg>