<svg xmlns="http://www.w3.org/2000/svg" viewBox="0 0 239.56 356.07"><defs><style>.cls-1{fill:#de6d80;}.cls-2{fill:#e9c0c8;}.cls-3{fill:#151a1c;}.cls-4{fill:#fff6f8;}.cls-5{fill:#ffd994;}.cls-10,.cls-6{fill:#ff8200;}.cls-6{opacity:0.5;}.cls-7{fill:#55a1af;}.cls-8{fill:#001a1e;}.cls-9{fill:none;stroke:#151a1c;stroke-linecap:round;stroke-miterlimit:10;stroke-width:22.37px;}.cls-10{opacity:0;}</style></defs><title>grab_1</title><g id="Layer_2" data-name="Layer 2"><g id="mon_grab1"><g id="Ears"><ellipse class="cls-1" cx="208.79" cy="154.61" rx="30.77" ry="31.82"/><ellipse class="cls-2" cx="208.79" cy="154.61" rx="19.16" ry="19.82"/><ellipse class="cls-1" cx="30.77" cy="154.61" rx="30.77" ry="31.82"/><ellipse class="cls-2" cx="30.77" cy="154.61" rx="19.16" ry="19.82"/></g><path class="cls-3" d="M198.18,193.86a70.65,70.65,0,0,0,10.61-37.08c0-43.25-39.85-78.3-89-78.3s-89,35.05-89,78.3a70.65,70.65,0,0,0,10.61,37.08A95.74,95.74,0,0,0,17,257.57c0,54.4,46,98.5,102.79,98.5s102.79-44.1,102.79-98.5A95.74,95.74,0,0,0,198.18,193.86Z"/><path id="Face" class="cls-1" d="M195.92,155.85c0-27.76-21.22-50.26-47.39-50.26A45.41,45.41,0,0,0,119.78,116,45.41,45.41,0,0,0,91,105.59c-26.17,0-47.39,22.5-47.39,50.26,0,0-5.71,56.77,76.14,56.77S195.92,155.85,195.92,155.85Z"/><path class="cls-2" d="M119.78,145.47c-26.39,0-55.16,17.25-68.68,38.9,8.84,14.15,27.88,28.25,68.68,28.25s59.83-14.1,68.68-28.25C174.94,162.72,146.17,145.47,119.78,145.47Z"/><g id="Eyes"><ellipse class="cls-3" cx="147.1" cy="130.81" rx="8.21" ry="8.49"/><ellipse class="cls-4" cx="146.1" cy="133.49" rx="3.49" ry="3.61"/><ellipse class="cls-3" cx="92.45" cy="130.91" rx="8.21" ry="8.49"/><ellipse class="cls-4" cx="93.45" cy="133.54" rx="3.43" ry="3.55"/></g><ellipse id="Mouth" class="cls-3" cx="120" cy="176.76" rx="30.59" ry="22.15"/><g id="Banana"><path class="cls-5" d="M158.57,163.77a48.35,48.35,0,0,1-69.29,9.38,49,49,0,0,1-10.13-11.06,4.2,4.2,0,0,0-7.56,1.43,48.27,48.27,0,0,0,11.89,44.86c16,16.9,42.77,19.9,62.06,6.86A48.4,48.4,0,0,0,166,165.39,4.16,4.16,0,0,0,158.57,163.77Z"/><path class="cls-6" d="M158.57,163.77a48.35,48.35,0,0,1-69.29,9.38,49,49,0,0,1-10.13-11.06A4.09,4.09,0,0,0,73.46,161a48,48,0,0,0,11.33,19.89c16,16.91,42.78,19.9,62.07,6.86a48.15,48.15,0,0,0,18.49-23.82A4.15,4.15,0,0,0,158.57,163.77Z"/><polygon class="cls-7" points="156.89 166.04 161.69 171.79 166.88 172.13 171.93 159.16 168.58 155.14 165.09 154.81 156.89 166.04"/><polygon class="cls-8" points="156.89 166.04 161.69 171.79 168.75 159.1 171.93 159.16 168.58 155.14 165.09 154.81 156.89 166.04"/><polygon class="cls-7" points="71.25 165.01 75.5 166.69 79.53 162.66 77.36 159.62 74.97 159.01 71.76 161.68 71.25 165.01"/><polygon class="cls-8" points="74.8 162.25 75.5 166.69 79.53 162.66 77.36 159.62 74.97 159.01 71.76 161.68 74.8 162.25"/></g><g id="Hands"><path class="cls-9" d="M89,258.67A105,105,0,0,1,95.43,207"/><path class="cls-9" d="M150.55,258.67A105,105,0,0,0,144.13,207"/></g><rect class="cls-10" width="239.56" height="356.07"/></g></g></svg>