<svg xmlns="http://www.w3.org/2000/svg" viewBox="0 0 239.56 356.07"><defs><style>.cls-1{fill:#e9c0c8;}.cls-2,.cls-5,.cls-6{fill:none;stroke:#151a1c;stroke-linecap:round;}.cls-2,.cls-5{stroke-linejoin:round;}.cls-2{stroke-width:22px;}.cls-3{fill:#de6d80;}.cls-4{fill:#151a1c;}.cls-5,.cls-6{stroke-width:4.38px;}.cls-6{stroke-miterlimit:10;}.cls-7{fill:#ff8200;opacity:0;}</style></defs><title>ouch_1</title><g id="Layer_2" data-name="Layer 2"><g id="mon_end1_copy" data-name="mon_end1 copy"><ellipse class="cls-1" cx="119.78" cy="88.56" rx="24.67" ry="25.51"/><path class="cls-2" d="M119.78,262.82c-56.28,0-101.9-47.2-101.9-105.43s49.39-94.09,83-91"/><path class="cls-2" d="M119.78,262.82c56.28,0,101.9-47.2,101.9-105.43s-49.39-94.09-83-91"/><g id="Ears"><ellipse class="cls-3" cx="208.79" cy="154.61" rx="30.77" ry="31.82"/><ellipse class="cls-1" cx="208.79" cy="154.61" rx="19.16" ry="19.82"/><ellipse class="cls-3" cx="30.77" cy="154.61" rx="30.77" ry="31.82"/><ellipse class="cls-1" cx="30.77" cy="154.61" rx="19.16" ry="19.82"/></g><path class="cls-4" d="M198.18,193.86a70.65,70.65,0,0,0,10.61-37.08c0-36.14-36.76-70.82-65.6-76.26-1.74-.33-2.6,2.48-3.85,2.48s-2.18-1.63-3.53-1.63-2.43,2.17-3.49,2.17-2.17-2.16-3.62-2.11c-1.83.08-3,2.11-4.17,2.11s-2.27-1.83-3.59-1.83-2.16,1.83-3.69,1.83-2.11-2-3.91-2-3.07,1.54-4.63,1.54-2.31-1.63-3.93-1.63-3.32,1.56-4,1.53c-1.11-.06-2.2-2.57-4.58-2-38.62,8.56-65.47,39.23-65.47,75.86a70.65,70.65,0,0,0,10.61,37.08A95.74,95.74,0,0,0,17,257.57c0,54.4,46,98.5,102.79,98.5s102.79-44.1,102.79-98.5A95.74,95.74,0,0,0,198.18,193.86Z"/><path id="Face" class="cls-3" d="M195.92,155.85c0-27.76-21.22-50.26-47.39-50.26A45.41,45.41,0,0,0,119.78,116,45.41,45.41,0,0,0,91,105.59c-26.17,0-47.39,22.5-47.39,50.26,0,0-5.71,56.77,76.14,56.77S195.92,155.85,195.92,155.85Z"/><path class="cls-1" d="M119.78,145.47c-26.39,0-55.16,17.25-68.68,38.9,8.84,14.15,27.88,28.25,68.68,28.25s59.83-14.1,68.68-28.25C174.94,162.72,146.17,145.47,119.78,145.47Z"/><g id="Eyes"><polyline class="cls-5" points="85.9 129.91 99.01 136.01 86.05 142.12"/><polyline class="cls-5" points="153.66 129.91 140.55 136.01 153.51 142.12"/></g><path class="cls-6" d="M104.58,169.79c0-10.63,9.89-14.24,15.2-14.24s15.2,3.61,15.2,14.24"/><rect class="cls-7" width="239.56" height="356.07"/></g></g></svg>