<svg xmlns="http://www.w3.org/2000/svg" viewBox="0 0 239.56 356.07"><defs><style>.cls-1{fill:#de6d80;}.cls-2{fill:#e9c0c8;}.cls-3{fill:#151a1c;}.cls-4{fill:#fff6f8;}.cls-5,.cls-6{fill:none;stroke:#151a1c;stroke-linecap:round;stroke-miterlimit:10;}.cls-5{stroke-width:4.12px;}.cls-6{stroke-width:22.37px;}.cls-7{fill:#ff8200;opacity:0;}</style></defs><title>reach_3</title><g id="Layer_2" data-name="Layer 2"><g id="mon_reach2"><g id="Ears"><ellipse class="cls-1" cx="208.79" cy="154.61" rx="30.77" ry="31.82"/><ellipse class="cls-2" cx="208.79" cy="154.61" rx="19.16" ry="19.82"/><ellipse class="cls-1" cx="30.77" cy="154.61" rx="30.77" ry="31.82"/><ellipse class="cls-2" cx="30.77" cy="154.61" rx="19.16" ry="19.82"/></g><path class="cls-3" d="M198.18,193.86a70.65,70.65,0,0,0,10.61-37.08c0-43.25-39.85-78.3-89-78.3s-89,35.05-89,78.3a70.65,70.65,0,0,0,10.61,37.08A95.74,95.74,0,0,0,17,257.57c0,54.4,46,98.5,102.79,98.5s102.79-44.1,102.79-98.5A95.74,95.74,0,0,0,198.18,193.86Z"/><path id="Face" class="cls-1" d="M195.92,155.85c0-27.76-21.22-50.26-47.39-50.26A45.41,45.41,0,0,0,119.78,116,45.41,45.41,0,0,0,91,105.59c-26.17,0-47.39,22.5-47.39,50.26,0,0-5.71,56.77,76.14,56.77S195.92,155.85,195.92,155.85Z"/><path class="cls-2" d="M119.78,145.47c-26.39,0-55.16,17.25-68.68,38.9,8.84,14.15,27.88,28.25,68.68,28.25s59.83-14.1,68.68-28.25C174.94,162.72,146.17,145.47,119.78,145.47Z"/><g id="Eyes"><ellipse class="cls-3" cx="147.1" cy="130.81" rx="8.21" ry="8.49"/><ellipse class="cls-4" cx="146.1" cy="127.89" rx="3.49" ry="3.61"/><ellipse class="cls-3" cx="92.45" cy="130.91" rx="8.21" ry="8.49"/><ellipse class="cls-4" cx="93.45" cy="127.95" rx="3.43" ry="3.55"/></g><path id="Mouth" class="cls-5" d="M139.16,165.8c0,9.08-8.68,16.43-19.38,16.43s-19.38-7.35-19.38-16.43"/><path class="cls-6" d="M119.88,243.18A105.45,105.45,0,0,0,145.37,35.43"/><path class="cls-6" d="M119.78,242.82A105.4,105.4,0,0,1,14.4,137.39C14.4,88,65.26,13.27,67.09,11.94"/><rect class="cls-7" width="239.56" height="356.07"/></g></g></svg>