<svg xmlns="http://www.w3.org/2000/svg" viewBox="0 0 98.02 100.96"><defs><style>.cls-1{font-size:14px;font-family:Courier-Bold, Courier;font-weight:700;}</style></defs><title>manastudios</title><g id="Layer_2" data-name="Layer 2"><g id="Layer_1-2" data-name="Layer 1"><path d="M23.7,57.63l-9,1.95c-3,.68-6,1.34-9,2.14h0A.55.55,0,0,1,5,61.33a.57.57,0,0,1,.37-.69c3-1,5.95-1.75,8.94-2.58l9-2.38a1,1,0,0,1,.51,1.94H23.7Z"/><path d="M22.4,51.27q-5.47.58-10.94,1.35c-1.82.26-3.64.52-5.44.84A32.87,32.87,0,0,0,.78,54.7l-.06,0A.53.53,0,0,1,0,54.41a.54.54,0,0,1,.3-.68,32,32,0,0,1,5.44-1.54c1.81-.41,3.63-.75,5.44-1.09q5.46-1,10.94-1.82a1,1,0,1,1,.3,2H22.4Z"/><path d="M81.13,44.15c2.48-.63,5-1.21,7.43-1.76,1.25-.26,2.49-.52,3.75-.75a22.15,22.15,0,0,1,3.87-.44.34.34,0,0,1,.33.34.35.35,0,0,1-.31.34h0a20.93,20.93,0,0,0-3.63.75c-1.21.32-2.42.69-3.63,1.06-2.4.75-4.81,1.55-7.19,2.37h0a1,1,0,1,1-.66-1.89Z"/><path d="M79.25,38.77c2.57-.74,5.14-1.4,7.75-2,1.3-.29,2.62-.55,3.94-.76a22.6,22.6,0,0,1,4-.36.42.42,0,0,1,.42.44.44.44,0,0,1-.41.43h0a22.14,22.14,0,0,0-3.83.62c-1.27.3-2.54.64-3.8,1-2.52.75-5,1.59-7.48,2.49h0a1,1,0,1,1-.69-1.88Z"/><path d="M44.15,48.84a10.27,10.27,0,0,1,1.64-.24,7.62,7.62,0,0,1,.82,0l.56,0c.75,0,1.5,0,2.24-.1a37.34,37.34,0,0,0,4.46-.61c1.48-.28,3-.63,4.4-1a43.46,43.46,0,0,0,4.26-1.44,1,1,0,0,1,1.32.55l0,.09A29,29,0,0,1,65,51.27a21,21,0,0,1,0,5.48,9.43,9.43,0,0,1-2.51,5.33,7.8,7.8,0,0,1-2.64,1.66,9.87,9.87,0,0,1-2.92.57,14.43,14.43,0,0,1-5.6-.7,9.28,9.28,0,0,1-4.65-3.53,14.19,14.19,0,0,1-2.07-5.2c-.18-.88-.3-1.77-.41-2.64L44,50.93l-.07-.65a3.61,3.61,0,0,1,0-.68A2.72,2.72,0,0,1,44.15,48.84Zm1.45,1.38a.38.38,0,0,0,.29-.13c.07,0,0-.22.07,0l.09.64L46.24,52c.13.83.29,1.65.48,2.44a12.14,12.14,0,0,0,1.85,4.31,6.82,6.82,0,0,0,3.52,2.51,12.6,12.6,0,0,0,4.62.43,6.13,6.13,0,0,0,3.84-1.5,7.34,7.34,0,0,0,1.89-3.84A24.89,24.89,0,0,0,62,46.57l1.35.64c-1.5.6-3,1.09-4.48,1.53s-3,.79-4.58,1.09a43.15,43.15,0,0,1-4.68.64c-.79.06-1.58.1-2.37.1l-.6,0a1.53,1.53,0,0,1-.33-.05C46.08,50.48,45.88,50.35,45.6,50.22Z"/><path d="M55.33,75.65A46.28,46.28,0,0,0,70.52,70.6a28.25,28.25,0,0,0,6.28-4.76,23.61,23.61,0,0,0,4.47-6.38A30,30,0,0,0,83.57,52,31,31,0,0,0,84,44a36.25,36.25,0,0,0-4.63-15.32,21.25,21.25,0,0,0-5.2-5.84,19.54,19.54,0,0,0-7-3.33,22.82,22.82,0,0,0-7.77-.54c-.64.07-1.28.16-1.9.29-.31.07-.62.14-.9.22a5.4,5.4,0,0,0-.76.29,13.93,13.93,0,0,0-3,2.16A22.09,22.09,0,0,0,48.05,28a10.73,10.73,0,0,0-1.36,7,6.54,6.54,0,0,0,.57,1.57A8.43,8.43,0,0,0,48.2,38a6.32,6.32,0,0,0,2.6,2,4.34,4.34,0,0,0,5.42-1.86,6.53,6.53,0,0,0,.86-3.29,8.36,8.36,0,0,0-.65-3.51,15,15,0,0,0-4.68-5.86,22.26,22.26,0,0,0-14.54-4.67c-5.16.2-10,2.87-13.75,6.54a30.08,30.08,0,0,0-7.93,13.49,29.45,29.45,0,0,0-1,7.81,27.13,27.13,0,0,0,1.09,7.75,23.67,23.67,0,0,0,9.23,12.24A40.33,40.33,0,0,0,39.4,74.94a43.34,43.34,0,0,0,15.92.62Zm.47,2.9a46.1,46.1,0,0,1-17-.67,43.13,43.13,0,0,1-15.69-6.77A26.65,26.65,0,0,1,12.71,57.3a31.93,31.93,0,0,1,0-17.21,33,33,0,0,1,8.76-14.75,28.33,28.33,0,0,1,7.08-5.07A21.51,21.51,0,0,1,37.07,18a25.08,25.08,0,0,1,16.4,5.31,17.65,17.65,0,0,1,5.51,7,11.66,11.66,0,0,1,.86,4.59,9.47,9.47,0,0,1-1.2,4.66,7.23,7.23,0,0,1-8.89,3.28,9.1,9.1,0,0,1-4-2.91,10.91,10.91,0,0,1-1.29-2,9.79,9.79,0,0,1-.82-2.33,11.53,11.53,0,0,1,.11-4.76,16.9,16.9,0,0,1,1.61-4.24,25,25,0,0,1,5.45-6.89,16.17,16.17,0,0,1,3.76-2.56,7.36,7.36,0,0,1,1.19-.43c.38-.11.75-.19,1.12-.26.74-.14,1.47-.22,2.2-.29a25.48,25.48,0,0,1,8.69.77,21.56,21.56,0,0,1,7.8,3.95,23.55,23.55,0,0,1,5.61,6.62,34.14,34.14,0,0,1,3.22,7.92A52.35,52.35,0,0,1,86,43.77a43.63,43.63,0,0,1,.21,8.56,26.32,26.32,0,0,1-2.33,8.38A28.87,28.87,0,0,1,71.93,73.07a49,49,0,0,1-16.14,5.38Z"/><ellipse cx="31.46" cy="39.18" rx="2.87" ry="2.98"/><ellipse cx="69.59" cy="33.52" rx="2.87" ry="2.98"/><text class="cls-1" transform="matrix(0.97, -0.26, 0.26, 0.97, 30.61, 14.61)">m</text><text class="cls-1" transform="matrix(1, -0.13, 0.13, 0.99, 38.5, 12.5)">a</text><text class="cls-1" transform="matrix(1.01, -0.03, 0.03, 1, 46.68, 11.45)">n</text><text class="cls-1" transform="matrix(1, 0.04, -0.04, 1, 54.98, 11.19)">a</text><text class="cls-1" transform="matrix(0.89, 0.43, -0.44, 0.9, 25.11, 87.56)">s</text><text class="cls-1" transform="matrix(0.96, 0.25, -0.25, 0.97, 33.67, 91.56)">t</text><text class="cls-1" transform="matrix(0.99, 0.06, -0.06, 1, 42.81, 93.79)">u</text><text class="cls-1" transform="matrix(0.98, -0.12, 0.12, 0.99, 52.17, 94.26)">d</text><text class="cls-1" transform="matrix(0.94, -0.3, 0.3, 0.95, 61.49, 93.02)">i</text><text class="cls-1" transform="matrix(0.87, -0.48, 0.49, 0.87, 70.46, 90.03)">o</text><text class="cls-1" transform="matrix(0.75, -0.65, 0.66, 0.75, 78.73, 85.29)">s</text></g></g></svg>