<svg xmlns="http://www.w3.org/2000/svg" viewBox="0 0 37.25 35.98"><defs><style>.cls-1{fill:#fff;}</style></defs><title>music_off</title><g id="Layer_2" data-name="Layer 2"><g id="Layer_8" data-name="Layer 8"><path class="cls-1" d="M0,2.33C.27,3.15,34.35,35.69,34.82,36s2.51-1.69,2.42-2.53S3.71,0,2.9,0-.23,1.5,0,2.33Z"/><path class="cls-1" d="M9.11,25.94S2.9,26.46,2.9,29a4.79,4.79,0,0,0,6.21,4.14c3.1-1,2.84-5.69,2.84-5.69V10.71l14-2.36v14s-5-.12-6.47,2.33,3.62,6.72,6.47,4.65a6.56,6.56,0,0,0,2.84-4.91s1.29-21,0-21.22S9.63,5.5,9.11,7.05,9.11,25.94,9.11,25.94Z"/></g></g></svg>