<svg xmlns="http://www.w3.org/2000/svg" viewBox="0 0 37.25 35.98"><defs><style>.cls-1{fill:#fff;}</style></defs><title>voice_off</title><g id="Layer_2" data-name="Layer 2"><g id="Layer_8" data-name="Layer 8"><path class="cls-1" d="M0,2.33C.27,3.15,34.35,35.69,34.82,36s2.51-1.69,2.42-2.53S3.71,0,2.9,0-.23,1.5,0,2.33Z"/><path class="cls-1" d="M1.12,11.23c-.42.29-.36,12.13,0,12.52s8.27.43,8.27.43,8.19,9.3,9.05,9,.69-30.76,0-30.67-8.55,8.7-8.55,8.7S1.54,10.94,1.12,11.23Z"/><path class="cls-1" d="M21.53,9.91v4S24.16,15.71,24,18s-2.5,4.22-2.5,4.22v3.85s6.3-2.1,5.8-8.25A9.13,9.13,0,0,0,21.53,9.91Z"/><path class="cls-1" d="M21.53,1.66s-.29,3.59,0,3.76S31.87,7.57,31.56,18s-9.3,12.24-9.5,12.52-.27,3.63.12,3.74S35.6,30.52,35.6,18,22.17,1.39,21.53,1.66Z"/></g></g></svg>