<svg xmlns="http://www.w3.org/2000/svg" viewBox="0 0 34.78 32.61"><defs><style>.cls-1{fill:#fff;}</style></defs><title>voice_on</title><g id="Layer_2" data-name="Layer 2"><g id="Layer_8" data-name="Layer 8"><path class="cls-1" d="M.3,9.58c-.42.29-.37,12.13,0,12.52s8.27.43,8.27.43,8.18,9.31,9.05,9S18.29.73,17.6.82,9,9.52,9,9.52.72,9.29.3,9.58Z"/><path class="cls-1" d="M20.7,8.27v4s2.64,1.81,2.51,4.08-2.51,4.23-2.51,4.23v3.85s6.31-2.11,5.8-8.26A9.09,9.09,0,0,0,20.7,8.27Z"/><path class="cls-1" d="M20.7,0s-.28,3.59,0,3.76S31,5.92,30.73,16.34s-9.29,12.25-9.49,12.52-.28,3.63.12,3.75,13.42-3.74,13.42-16.27S21.35-.25,20.7,0Z"/></g></g></svg>